Coordinates
version=1
nRows=4
nColumns=114
inDegrees=yes

Units are S.I. units (second, meters, Newtons, ...)
If the header above contains a line with 'inDegrees', this indicates whether rotational values are in degrees (yes) or radians (no).

endheader 
time	pelvis_tilt	pelvis_list	pelvis_rotation	pelvis_tx	pelvis_ty	pelvis_tz	hip_flexion_l	hip_adduction_l	hip_rotation_l	hip_flexion_r	hip_adduction_r	hip_rotation_r	knee_angle_l	knee_angle_r	ankle_angle_l	ankle_angle_r	subtalar_angle_l	subtalar_angle_r	mtp_angle_l	mtp_angle_r	lumbar_extension	lumbar_bending	lumbar_rotation	arm_flex_l	arm_add_l	arm_rot_l	arm_flex_r	arm_add_r	arm_rot_r	elbow_flex_l	elbow_flex_r	pro_sup_l	pro_sup_r	addbrev_l/activation	addlong_l/activation	addmagDist_l/activation	addmagIsch_l/activation	addmagMid_l/activation	addmagProx_l/activation	bflh_l/activation	bfsh_l/activation	edl_l/activation	ehl_l/activation	fdl_l/activation	fhl_l/activation	gaslat_l/activation	gasmed_l/activation	glmax1_l/activation	glmax2_l/activation	glmax3_l/activation	glmed1_l/activation	glmed2_l/activation	glmed3_l/activation	glmin1_l/activation	glmin2_l/activation	glmin3_l/activation	grac_l/activation	iliacus_l/activation	perbrev_l/activation	perlong_l/activation	piri_l/activation	psoas_l/activation	recfem_l/activation	sart_l/activation	semimem_l/activation	semiten_l/activation	soleus_l/activation	tfl_l/activation	tibant_l/activation	tibpost_l/activation	vasint_l/activation	vaslat_l/activation	vasmed_l/activation	addbrev_r/activation	addlong_r/activation	addmagDist_r/activation	addmagIsch_r/activation	addmagMid_r/activation	addmagProx_r/activation	bflh_r/activation	bfsh_r/activation	edl_r/activation	ehl_r/activation	fdl_r/activation	fhl_r/activation	gaslat_r/activation	gasmed_r/activation	glmax1_r/activation	glmax2_r/activation	glmax3_r/activation	glmed1_r/activation	glmed2_r/activation	glmed3_r/activation	glmin1_r/activation	glmin2_r/activation	glmin3_r/activation	grac_r/activation	iliacus_r/activation	perbrev_r/activation	perlong_r/activation	piri_r/activation	psoas_r/activation	recfem_r/activation	sart_r/activation	semimem_r/activation	semiten_r/activation	soleus_r/activation	tfl_r/activation	tibant_r/activation	tibpost_r/activation	vasint_r/activation	vaslat_r/activation	vasmed_r/activation
          1.93000000	        -15.91411207	         13.42747418	        -47.16802494	          1.24583449	          0.70747169	          0.13314246	         68.76994226	          0.37616076	         -4.56241136	         80.43515262	         -1.08916848	        -20.45773489	         84.38897206	         95.84383309	         29.59725226	         -6.85384811	        -21.45851817	        -21.87904845	        -17.65727204	        -20.43979641	        -31.12455305	        -18.75672493	          7.40378552	         -2.16940888	        -46.19072642	        -45.72419089	         20.20031520	        -53.96558039	        -28.72420702	         22.49547901	         36.37673294	         53.57404849	         55.02690940	          0.01222177	          0.01150116	          0.21350337	          0.08728547	          0.20080340	          0.03383677	          0.35685196	          0.26104307	          0.05535434	          0.14620976	          0.02042087	          0.02823714	          0.09322708	          0.33765425	          0.23055577	          0.64396337	          0.64765094	          0.01002489	          0.01749019	          0.03885089	          0.01005516	          0.01007091	          0.01729799	          0.23279736	          0.01003835	          0.05636517	          0.07323058	          0.14206398	          0.01007196	          0.01003756	          0.05640723	          0.17180502	          0.68884552	          0.78809479	          0.01215841	          0.10974615	          0.33626175	          0.13626733	          0.76327583	          0.17302308	          0.02225469	          0.02453825	          0.03574748	          0.02927829	          0.03521737	          0.02253053	          0.05910354	          0.01192384	          0.01403161	          0.02215716	          0.02358978	          0.02870936	          0.01335391	          0.01285937	          0.06866127	          0.09076139	          0.13757085	          0.03459096	          0.03398430	          0.03407380	          0.02977308	          0.02994608	          0.02942240	          0.02441494	          0.01201092	          0.01695346	          0.02467132	          0.03894652	          0.01193812	          0.01377752	          0.02421003	          0.02546707	          0.02519084	          0.11493487	          0.02005613	          0.03153495	          0.03439428	          0.06211037	          0.12046400	          0.06665589	
          1.94000000	        -15.78230385	         13.04502248	        -47.50347032	          1.24731042	          0.71149489	          0.13337804	         67.85851347	          0.11413583	         -4.61187263	         79.72599702	         -0.82563698	        -20.53227676	         83.94578507	         95.43740361	         29.68658405	         -7.05250001	        -21.42968678	        -21.70949861	        -17.31329964	        -19.99937240	        -31.04621160	        -18.42887263	          7.90268759	         -1.77847819	        -45.65068809	        -45.45002181	         19.62927357	        -53.54960595	        -28.52920234	         23.30942942	         36.81260234	         54.54638381	         55.29277402	          0.01042031	          0.01098033	          0.17799544	          0.07294899	          0.16738792	          0.02827114	          0.29749854	          0.21755466	          0.04618556	          0.12190244	          0.09554229	          0.21198050	          0.17520892	          0.35548571	          0.54340924	          0.53692450	          0.53974685	          0.15806611	          0.27987348	          0.27725090	          0.01351555	          0.05477715	          0.21545572	          0.19402261	          0.01154755	          0.04699452	          0.06103854	          0.26601153	          0.01086437	          0.08152528	          0.04703511	          0.14334323	          0.57406889	          0.92934368	          0.02619059	          0.09147334	          0.48024714	          0.47604439	          0.92093870	          0.61678310	          0.01858986	          0.02053434	          0.02983686	          0.02455057	          0.02937856	          0.01887616	          0.04970852	          0.01042275	          0.01193342	          0.01990938	          0.03327950	          0.04567037	          0.01185536	          0.01131014	          0.05722811	          0.07564535	          0.11468801	          0.02882944	          0.02833267	          0.02843922	          0.02482479	          0.02496979	          0.02460502	          0.02043522	          0.01016858	          0.01423777	          0.02062995	          0.03442966	          0.01008540	          0.01176500	          0.02023570	          0.02129904	          0.02114519	          0.10111522	          0.01829668	          0.03094532	          0.05022765	          0.05177426	          0.10039194	          0.05555664	
          1.95000000	        -15.64007892	         12.62669617	        -47.83236985	          1.24898516	          0.71520544	          0.13385510	         66.83272275	         -0.06582153	         -4.44430275	         79.04560173	         -0.59474572	        -20.62598608	         83.21139560	         95.14159103	         29.62649477	         -7.30457687	        -21.32734261	        -21.53356291	        -17.41569131	        -19.46269987	        -30.90119997	        -18.09218026	          8.38933200	         -1.55985663	        -45.27294753	        -45.38033412	         19.08627576	        -53.08311113	        -28.33774455	         24.10322512	         36.93125764	         54.93560300	         55.43111875	          0.01034726	          0.01100047	          0.14860242	          0.06144721	          0.13963647	          0.02366577	          0.24983154	          0.18132286	          0.03857566	          0.10829285	          0.09598235	          0.28192142	          0.14969923	          0.29636940	          0.52607875	          0.84542896	          0.46921264	          0.22223959	          0.24255321	          0.23467493	          0.02939932	          0.11200184	          0.18013228	          0.16173682	          0.01041117	          0.03918789	          0.05089172	          0.24057380	          0.01022529	          0.06795876	          0.03921986	          0.15709477	          0.53508317	          0.97642340	          0.02325475	          0.07627684	          0.51114529	          0.76331824	          0.97361562	          0.87208171	          0.01553518	          0.01719308	          0.02489394	          0.02055112	          0.02450375	          0.01582752	          0.04171311	          0.01249685	          0.01189866	          0.01686239	          0.02798675	          0.03823149	          0.01793118	          0.01851971	          0.04769725	          0.06304476	          0.09559923	          0.02402750	          0.02362019	          0.02372913	          0.02069862	          0.02081980	          0.02056300	          0.01711078	          0.01044857	          0.01339933	          0.05611258	          0.02893932	          0.01031743	          0.02064549	          0.01725571	          0.01780949	          0.01774934	          0.08619933	          0.01691597	          0.02583589	          0.04195598	          0.04315424	          0.08366262	          0.04630309	
          1.96000000	        -15.54829897	         12.28064394	        -48.11291340	          1.25061655	          0.71888912	          0.13443831	         65.78522334	         -0.21138393	         -4.27403035	         78.47909815	         -0.41652429	        -20.71339794	         82.27814754	         94.85885080	         29.48977679	         -7.62330598	        -21.22710495	        -21.36971941	        -17.88664038	        -18.81270304	        -30.62978273	        -17.79252986	          8.80162443	         -1.24805689	        -45.05399084	        -45.33749030	         18.69502806	        -52.52469004	        -28.04867145	         24.77306747	         36.73955102	         55.10308748	         55.51855969	          0.01102371	          0.01190566	          0.35165043	          0.21517718	          0.15725996	          0.01990303	          0.20833375	          0.15112443	          0.03222869	          0.09028678	          0.09077686	          0.28885415	          0.14716618	          0.24712410	          0.64789301	          0.93290341	          0.39349528	          0.27835846	          0.29890948	          0.33435837	          0.05204451	          0.10117573	          0.17000490	          0.13482636	          0.01025052	          0.03268228	          0.04242006	          0.25139748	          0.01016224	          0.05666667	          0.03270377	          0.13097964	          0.44593269	          0.99211306	          0.02050527	          0.06359055	          0.51306765	          0.92068460	          0.99118816	          0.95729172	          0.01299100	          0.01440640	          0.02076935	          0.01719977	          0.02043815	          0.01327968	          0.03501276	          0.01209966	          0.01028459	          0.01424716	          0.05145592	          0.07154512	          0.10765418	          0.15784442	          0.03975348	          0.05254286	          0.07968765	          0.02002540	          0.01969149	          0.01979800	          0.01725843	          0.01735956	          0.01718324	          0.01433403	          0.01077242	          0.03249186	          0.04708874	          0.02429702	          0.01036717	          0.26619587	          0.18366922	          0.01489174	          0.01489823	          0.07583470	          0.01511514	          0.02157088	          0.06409822	          0.03596949	          0.06972133	          0.03859088	
